<svg width="110" height="92" viewBox="0 0 110 92" fill="none" xmlns="http://www.w3.org/2000/svg">
<path fill-rule="evenodd" clip-rule="evenodd" d="M58.1521 22.4802C58.1732 22.6106 58.1955 22.7198 58.2241 22.8142C58.2241 22.8167 58.2241 22.8192 58.2266 22.8216C58.3756 23.3196 58.6351 23.3407 58.8934 22.8924C58.8959 22.8949 58.8959 22.8949 58.8959 22.8962C58.9021 22.8887 58.9046 22.88 58.9058 22.8701C58.9666 22.7645 59.0262 22.6416 59.0846 22.4876L59.2224 22.1176C61.9045 15.6583 64.2091 9.2375 64.8783 6.93788L64.8982 6.88946C64.9628 6.71438 65.0075 6.52316 65.0423 6.32448C65.0508 6.28706 65.0575 6.25055 65.0632 6.21973L65.0633 6.21909L65.0658 6.20528L65.0609 6.20156C65.1751 5.39818 65.0497 4.48181 64.7256 3.83861C64.7256 3.83613 64.7281 3.83489 64.7281 3.83489C64.2587 2.77696 63.2455 1.2236 62.4707 0.416498C62.4707 0.417842 62.4696 0.418459 62.4684 0.419136C62.4674 0.419709 62.4663 0.420326 62.4657 0.421465C61.9616 -0.119914 61.1632 -0.141023 60.5001 0.365589C60.4883 0.374566 60.4778 0.381515 60.4674 0.388384C60.4548 0.396715 60.4424 0.404928 60.4281 0.416498C59.3193 1.30928 57.674 3.02654 56.7154 4.20615C56.7142 4.20988 56.7117 4.2136 56.7092 4.21609C56.7043 4.22229 56.7018 4.22726 56.6981 4.23223C56.626 4.32411 56.5615 4.42097 56.5081 4.51658C56.076 5.21813 55.8152 6.1047 55.8425 6.82985L55.8351 6.82861C56.2188 11.2051 56.947 15.4172 57.7466 20.0421L57.7472 20.0453C57.8505 20.6431 57.9551 21.2477 58.0602 21.8606L58.1521 22.4802ZM60.6424 23.4398C60.6722 23.3641 60.7156 23.2809 60.7703 23.1828L60.9118 22.9394C64.5699 16.2032 68.0367 10.1723 69.5776 8.10367L69.5883 8.08754C69.6119 8.05196 69.6354 8.0165 69.6645 7.98198C69.667 7.9795 69.6695 7.97453 69.672 7.97329H69.6732C69.9762 7.61692 70.4294 7.30153 70.9149 7.08796L70.9185 7.08594C70.9215 7.08419 70.9253 7.08173 70.9286 7.07927C71.7071 6.6782 73.2655 6.51181 74.8312 6.54658L74.8859 6.54161C75.0659 6.52423 75.2311 6.53913 75.3875 6.56769H75.3999V6.57017C76.0406 6.68938 76.4516 7.15253 76.3598 7.75848C76.4479 8.90084 76.0158 11.1657 75.729 11.8014L75.7258 11.8107C75.723 11.8191 75.7209 11.8253 75.7153 11.8337C75.683 11.9306 75.6408 12.0324 75.5961 12.133C75.5827 12.1698 75.5703 12.2048 75.5583 12.2384L75.5582 12.2387C75.4478 12.5497 75.379 12.7433 74.9343 13.1735C74.9306 13.1772 74.9244 13.1822 74.9231 13.1847C74.7294 13.4107 74.5258 13.6156 74.3159 13.7732L73.3114 14.5245C71.1595 16.2442 67.0371 19.4056 61.5128 23.338L61.3042 23.4932C60.7119 23.9353 60.4524 23.898 60.6399 23.4485L60.6349 23.4498C60.6363 23.447 60.6377 23.4451 60.639 23.4434C60.6402 23.4421 60.6413 23.441 60.6424 23.4398ZM74.4663 18.8132C74.4663 18.8132 67.6432 21.8008 61.8742 25.0267L61.8556 25.0366C61.8109 25.0577 61.7761 25.0788 61.7401 25.1012C61.7277 25.1086 61.7153 25.1148 61.7016 25.1223C61.313 25.3694 61.3949 25.6041 61.9351 25.6699C65.0406 26.4447 71.1845 26.8731 72.5677 26.9625L72.6124 26.9674C72.6671 26.9749 72.7291 26.9761 72.7887 26.9761L72.8508 26.9799L72.8533 26.9786C73.4717 26.9761 74.3135 26.729 74.6761 26.4484C77.3085 24.787 78.6421 22.845 78.6421 22.845C79.073 22.3893 79.1301 21.658 78.7601 21.2196C78.0697 20.0922 75.9464 18.8939 75.9464 18.8939C75.5441 18.6257 74.9394 18.5786 74.4663 18.8132ZM34.1397 35.2957C34.4787 35.8284 36.0359 36.5995 37.896 37.0825C37.8989 37.0835 37.9018 37.084 37.9045 37.0846L37.9086 37.0855C37.9116 37.0862 37.9145 37.0871 37.9172 37.0887C37.9352 37.0931 37.9538 37.0965 37.9724 37.0999L37.9963 37.1044C38.0069 37.1064 38.0174 37.1086 38.0277 37.1111C38.1258 37.1322 38.2226 37.152 38.317 37.162C39.2459 37.306 40.3262 37.1756 41.2414 36.8081L41.2424 36.8089L41.2438 36.8099L41.2452 36.8106C41.2464 36.8112 41.2476 36.8118 41.2488 36.8131C41.299 36.7934 41.3577 36.7659 41.4226 36.7356L41.4748 36.7112C41.5321 36.6846 41.5847 36.6571 41.6375 36.6295L41.6376 36.6295L41.6376 36.6295L41.6376 36.6295L41.6378 36.6294L41.6381 36.6292L41.6785 36.6082C44.1186 35.3218 52.6074 29.5603 55.3815 27.2495C55.5019 27.1589 55.6025 27.0707 55.6919 26.9863L55.6933 26.9837L55.6946 26.9818L55.6955 26.981L55.6969 26.9801C56.3078 26.3878 56.1775 25.9284 55.3504 25.8104C55.3504 25.8104 55.3492 25.8092 55.3467 25.8092C55.2561 25.798 55.1505 25.7893 55.0412 25.7856C52.8011 25.6304 44.9928 25.6155 42.3044 25.9681L42.2681 25.9726C42.201 25.9808 42.1345 25.989 42.0672 26.0016C42.0057 26.0107 41.9475 26.0214 41.8912 26.0317L41.8911 26.0318L41.8523 26.0389C41.8523 26.0389 41.8523 26.041 41.8514 26.0434L41.8506 26.0452L41.8497 26.0465C41.849 26.0473 41.8483 26.0481 41.8474 26.0488C40.967 26.2437 40.012 26.6721 39.2285 27.2247H39.2248C37.5893 28.2615 34.696 31.8972 34.0577 32.9737C34.0537 32.9797 34.0512 32.9853 34.0485 32.9912L34.0485 32.9912C34.0462 32.9963 34.0438 33.0015 34.0403 33.0073C33.5362 33.8231 33.5908 34.6935 34.1459 35.2895L34.1397 35.2957ZM40.8721 19.633C40.1097 19.1512 39.5112 18.2795 39.3622 17.3979C39.3601 17.3874 39.3568 17.3785 39.3534 17.3694L39.3497 17.3589C39.3484 17.3551 39.3471 17.3512 39.346 17.347C38.9002 15.708 38.9102 13.093 39.0728 11.711C39.0803 11.547 39.1051 11.3869 39.1461 11.2329C39.15 11.2191 39.153 11.2035 39.1557 11.1886L39.1558 11.1885L39.1558 11.1884C39.1582 11.1753 39.1606 11.1626 39.1635 11.1522H39.1672C39.3535 10.5587 39.7781 10.0682 40.3319 9.80743C40.4151 9.76397 40.5045 9.72672 40.6125 9.69444C40.6168 9.69324 40.6213 9.69262 40.6256 9.69201C40.6303 9.69137 40.6348 9.69075 40.6386 9.68947C40.6622 9.68202 40.687 9.67581 40.7119 9.66961C41.9647 9.33311 44.9038 9.17169 46.8198 9.24246C46.8479 9.24317 46.8761 9.24348 46.9045 9.24378H46.9046H46.9046C46.9752 9.24454 47.0468 9.24531 47.1203 9.2524C47.1252 9.2524 47.1327 9.25364 47.1364 9.25488C47.1364 9.25488 47.1389 9.25488 47.1389 9.25612C48.1633 9.38402 49.2398 10.0359 49.7601 10.8803C49.7614 10.8803 49.7663 10.879 49.7663 10.879C51.9132 14.3595 54.3221 18.5452 56.2728 22.8726L56.351 23.0191C56.4342 23.1681 56.4876 23.3059 56.5298 23.4326C56.5302 23.435 56.5308 23.4369 56.5313 23.4386L56.5323 23.4412C56.5332 23.4437 56.5342 23.4462 56.5348 23.4499C56.5342 23.4499 56.5339 23.4503 56.5334 23.4507C56.5329 23.4512 56.5323 23.4518 56.5311 23.4524C56.7397 24.1329 56.3833 24.5004 55.6222 24.3663C55.6222 24.3681 55.6228 24.3686 55.6237 24.3692L55.6246 24.37C55.6086 24.3652 55.5923 24.3607 55.5757 24.3562C55.5627 24.3526 55.5496 24.349 55.5365 24.3452L55.5226 24.3426C55.448 24.3287 55.3748 24.315 55.2906 24.2881L55.0795 24.2235C51.5916 23.2637 44.0148 20.9616 41.5078 19.9347L41.4569 19.9186C41.2806 19.8614 41.1129 19.7795 40.9478 19.6814C40.9342 19.6749 40.9192 19.6674 40.9048 19.6601L40.8683 19.6417C40.8696 19.6367 40.8696 19.6355 40.8721 19.633ZM101.564 18.4256C102.759 18.1226 104.577 16.1421 105.004 14.9203C105.342 13.9505 101.921 15.2121 100.74 15.8056C98.203 16.9827 100.53 18.6876 101.564 18.4256ZM106.046 24.9212L106.047 24.9211L106.049 24.9187C106.329 24.6574 106.649 24.3577 107.087 23.9519C107.625 23.4503 111.192 20.1883 108.508 25.0955C108.486 25.1363 108.462 25.1815 108.436 25.2316C108.15 25.7747 107.561 26.892 105.41 29.1782C102.703 32.0465 100.503 33.5651 98.5834 34.4318L98.4993 34.4701C97.5501 34.903 94.9688 36.0801 95.1241 33.2808C95.1986 31.9795 95.735 29.5333 96.4477 27.5652C96.526 27.3452 96.6005 27.1325 96.6725 26.9269C97.4323 24.7574 97.9181 23.3704 99.6761 22.3315C99.713 22.3095 99.7512 22.2865 99.7908 22.2625C99.8141 22.2485 99.8377 22.2342 99.8618 22.2196C100.401 21.8928 101.162 21.4324 101.925 21.2773C102.856 21.0879 102.276 22.6466 101.999 23.3937C101.956 23.5085 101.921 23.6041 101.899 23.6713C101.416 25.1948 100.472 28.3984 100.547 28.5884C100.625 28.7759 100.872 28.8032 101.29 28.6666C101.953 28.4531 102.809 27.8831 104.155 26.6638C105.061 25.8421 105.465 25.4645 106.046 24.9217L106.046 24.9215L106.046 24.9212ZM91.8536 32.8319C87.8538 36.362 87.8948 35.165 88.0537 33.1075C88.2524 30.5472 88.8559 28.697 89.6916 26.3155C89.8096 25.9765 89.9512 25.5332 90.0977 25.0502C90.2455 24.9757 90.3746 24.9099 90.4739 24.8552C92.0038 24.0519 96.0197 21.8603 96.7263 19.7419C97.6076 17.0991 96.9147 17.4376 95.6679 18.0467C95.4971 18.1301 95.3158 18.2187 95.1269 18.3053C94.4402 18.617 93.1053 19.2415 91.6623 19.9195C92.0032 19.1808 92.3469 18.4701 92.6906 17.7593L92.6909 17.7588C93.2385 16.6263 93.7864 15.4934 94.3234 14.2462C97.377 7.09899 98.9068 2.87102 98.9068 1.56351C98.9068 0.57388 98.0711 0.437294 97.0417 1.15375C96.5239 1.49522 95.9539 2.09744 95.3479 2.95048C95.3455 2.95387 95.3423 2.95745 95.339 2.96121C95.3337 2.96711 95.3281 2.97346 95.3243 2.98029C95.3111 2.9985 95.2978 3.01782 95.2846 3.03714L95.2845 3.03721L95.2647 3.06596C95.1703 3.20409 95.0432 3.34821 94.9109 3.49823L94.9108 3.49833L94.9107 3.49837C94.7421 3.68952 94.5651 3.89023 94.4364 4.10029C91.825 8.25252 88.733 15.129 86.6008 22.2936C84.7593 23.1554 84.2477 23.4422 82.9475 25.034C82.9475 25.034 81.3283 26.8196 81.3717 27.4007C81.4413 28.3419 83.186 27.9781 85.1505 27.2592C85.0583 27.4646 84.9628 27.679 84.8598 27.9103C84.7754 28.0998 84.6859 28.3006 84.5892 28.517C84.4624 28.7344 84.2978 29.0231 84.1042 29.3628L84.104 29.3631C83.7302 30.0186 83.2482 30.8639 82.7215 31.7528C79.7475 36.6762 76.6555 40.6508 75.1542 41.4604C74.6363 41.7361 74.3197 41.8168 74.2017 41.7026C74.08 41.5871 74.0217 41.2419 74.0192 40.6608C74.0192 40.4832 74.1968 39.65 74.5531 38.165C74.61 37.9293 74.6566 37.7593 74.6932 37.626C74.7597 37.3837 74.7928 37.2632 74.7928 37.0909C74.7903 36.1522 74.4836 35.874 73.864 35.5996C73.2443 35.3289 72.2782 35.4022 71.1457 36.1484C68.0227 38.1986 63.6743 43.242 61.1492 46.1706L61.1492 46.1707L61.1491 46.1708C60.0849 47.4051 59.3445 48.2637 59.1564 48.3643C59.1539 47.7409 60.2578 40.744 60.8353 38.2146C61.0849 37.1269 60.7707 36.2217 60.3274 36.0094C59.4594 35.5909 57.0789 36.6824 56.463 37.4137C55.847 38.1451 55.405 39.2018 55.143 40.2013C53.1499 47.7571 52.4719 54.3058 52.4731 55.4643C52.4756 56.5358 52.7749 57.2697 53.3709 57.6633C53.9695 58.0594 54.6872 58.1029 55.8421 57.487C57.0354 56.8488 57.973 56.0677 59.2868 54.5193C59.2952 54.5147 59.4012 54.3483 59.5824 54.0635L59.5824 54.0635C60.2301 53.0461 61.839 50.5188 63.3933 48.4698C64.4265 47.0692 65.4298 45.8051 66.4071 44.6839L66.4481 44.6367C67.3937 43.5488 67.8494 43.0245 68.2412 42.8164C68.5616 42.6475 68.7503 42.6574 68.8075 42.8486C68.8419 42.9569 68.7972 43.3923 68.7436 43.9147C68.7024 44.3155 68.656 44.7674 68.6361 45.1619C68.5777 46.3415 68.6932 47.8415 69.1191 48.2525C70.1734 49.2697 71.3873 48.6215 73.1586 47.6756L73.1897 47.659C74.727 46.8407 78.3741 44.484 83.7386 35.7362L83.7384 35.7392L83.7384 35.7397C83.7049 36.434 83.6703 37.1527 83.669 37.7403C83.6082 39.9542 84.2328 43.765 88.276 40.0176C94.0155 34.6361 93.9112 31.0153 91.8536 32.8319ZM33.4756 51.9858C36.4832 46.2293 42.1706 42.9575 46.0809 44.9988C49.6982 46.8862 50.5848 52.4366 48.3211 57.8131C48.2951 57.8732 48.2699 57.9334 48.2447 57.9937C48.2047 58.0894 48.1645 58.1853 48.1211 58.2812C48.105 58.3197 48.0901 58.357 48.0727 58.3942C48.0702 58.4004 48.0653 58.4063 48.0603 58.4122C48.0553 58.4181 48.0504 58.424 48.0479 58.4302C47.7846 58.9778 47.4878 59.5192 47.1414 60.0482C45.1632 63.0493 42.666 65.0708 40.329 66.3063C38.3183 67.3551 36.2485 67.6318 34.8939 67.8128C34.7025 67.8384 34.5254 67.8621 34.3648 67.8857C33.5402 67.9752 32.6933 68.2657 31.9644 69.156V69.1523C27.1053 74.237 20.432 75.804 16.6583 72.5831C14.6118 70.8385 13.827 68.0236 14.2107 64.9255C10.615 70.9457 8.33168 77.9716 6.60027 83.2993C5.26908 87.3954 4.26411 90.4878 3.23966 91.3476C3.20117 91.3774 3.16019 91.4022 3.11797 91.4258C3.10804 91.4333 3.0981 91.4395 3.08568 91.4457C2.23631 91.9225 0.890226 89.192 0.841797 88.4333C0.846764 88.2098 0.862907 87.9962 0.884017 87.8249C1.51484 82.4496 6.45338 47.7442 14.7161 24.0862C15.0465 23.1388 15.4848 22.5366 15.9902 22.2274C15.9979 22.2234 16.0058 22.2191 16.0139 22.2146C16.0359 22.2027 16.0595 22.1898 16.0858 22.1789C16.0948 22.173 16.1069 22.167 16.119 22.1611C16.122 22.1596 16.1251 22.1581 16.128 22.1566C16.5738 21.9467 17.458 21.8474 18.7171 26.2182C19.6659 29.5149 18.6638 32.4875 18.3819 33.1158V33.117C14.0071 42.7774 9.48828 58.7121 7.63555 70.7342C8.92203 67.7591 13.8643 57.5511 18.6166 52.2776C18.7473 52.0481 18.8822 51.8105 19.0208 51.5664C21.4003 47.3755 24.8844 41.2394 27.6654 39.9464C28.8451 39.3988 32.1234 40.3934 32.9529 41.3967C33.7035 42.3098 32.0152 43.4753 30.9043 44.2422C30.7931 44.319 30.6876 44.3918 30.591 44.4599C27.9036 46.3598 23.5577 51.7542 22.3103 53.3025C22.281 53.3388 22.2535 53.3731 22.2276 53.4051C20.3414 56.4473 19.487 59.8545 19.3554 62.6234C19.2884 65.1031 20.0036 67.2997 21.2516 68.6444C23.2856 70.6299 26.9998 71.4569 31.4714 63.2306C31.8141 62.6036 32.4077 62.2261 33.0299 62.0932C33.0299 62.0932 33.303 62.0547 33.308 62.0547C33.5179 62.0374 33.7277 62.0597 33.9413 62.1094V62.1057C33.9432 62.1063 33.9457 62.1072 33.9484 62.1082C33.951 62.1091 33.9538 62.11 33.9562 62.1106C33.9622 62.1122 33.9681 62.1137 33.974 62.1152C34.0008 62.1221 34.0261 62.1285 34.0506 62.1367C34.1086 62.1526 34.1696 62.1697 34.2334 62.1875C35.9026 62.6543 39.5246 63.6672 42.8771 59.2051C42.9791 59.0639 43.0798 58.9003 43.1758 58.7444C43.241 58.6383 43.3041 58.5358 43.3639 58.4464C43.3639 58.4439 43.3639 58.4427 43.3651 58.4402C43.9152 57.5697 44.4244 56.5242 44.8379 55.3608C46.1318 51.7164 45.9816 48.3365 44.5001 47.8088C43.0174 47.2835 40.781 49.8154 39.4734 53.4548C38.7042 55.5946 38.7872 56.9969 38.8434 57.9472C38.8655 58.3209 38.8834 58.6247 38.8438 58.876C38.7979 59.1616 38.6824 59.436 38.3037 59.6545C35.1396 61.4662 30.8642 58.4141 33.0423 52.9357C33.1155 52.7333 33.231 52.4726 33.3974 52.1448C33.4072 52.1258 33.4162 52.1065 33.4253 52.0873C33.437 52.0625 33.4487 52.0376 33.462 52.0132C33.4637 52.0097 33.4654 52.0068 33.4671 52.0039C33.4702 51.9984 33.4732 51.9932 33.4756 51.9858Z" fill="#FEFEFE"/>
</svg>
